<svg width="839" height="840" viewBox="0 0 839 840" fill="none" xmlns="http://www.w3.org/2000/svg">
<path fill-rule="evenodd" clip-rule="evenodd" d="M813.027 399.78C721.247 311.932 588.547 250.303 560.965 325.918C533.383 401.524 543.789 483.529 589.716 492.525C635.643 501.522 831.743 417.699 813.027 399.78Z" fill="#61C7CB" fill-opacity="0.8"/>
<path fill-rule="evenodd" clip-rule="evenodd" d="M389.319 21.89C355.409 27.45 275.979 253.27 349.319 284.67C422.659 316.07 499.179 269.55 498.319 217.67C496.999 137.36 423.229 16.33 389.319 21.89Z" fill="#ECBCCF"/>
<path fill-rule="evenodd" clip-rule="evenodd" d="M8.89087 442.38C44.6809 479.21 175.231 559.25 249.671 535.38C294.701 520.94 327.011 377.51 238.671 352.38C150.331 327.25 -7.51913 425.49 8.89087 442.38Z" fill="#EE6922" fill-opacity="0.8"/>
<path fill-rule="evenodd" clip-rule="evenodd" d="M452.476 833.078C564.756 638.637 512.175 570.239 457.885 548.774C425.59 536.007 324.399 551.176 341.039 633.087C358.339 718.266 437.448 859.109 452.476 833.078Z" fill="#6DB67C" fill-opacity="0.79"/>
<path fill-rule="evenodd" clip-rule="evenodd" d="M192.451 303.851C157.4 256.881 136.569 198.687 136.389 135.665C198.225 135.665 255.461 155.538 302.036 189.247C302.275 189.427 302.527 189.607 302.778 189.786C308.013 224.957 316.518 253.647 331.42 287.775C351.88 334.613 381.193 378.504 419.358 416.897C361.092 359.074 281.659 323.688 205.329 306.966C201.124 305.696 196.836 304.654 192.451 303.851Z" stroke="#25306E" stroke-opacity="0.07" stroke-width="10.4218" stroke-miterlimit="2" stroke-linecap="round"/>
<path fill-rule="evenodd" clip-rule="evenodd" d="M534.333 190.972C535.495 190.11 536.669 189.259 537.843 188.421C584.202 155.215 641.007 135.665 702.327 135.665C702.16 197.082 682.37 253.934 648.901 300.269C648.062 301.431 647.212 302.593 646.349 303.755C561.609 316.74 486.082 352.282 420.221 417.772C483.183 354.45 518.557 279.821 532.752 198.615C533.363 196.087 533.89 193.548 534.333 190.972Z" stroke="#25306E" stroke-opacity="0.07" stroke-width="10.4218" stroke-miterlimit="2" stroke-linecap="round"/>
<path fill-rule="evenodd" clip-rule="evenodd" d="M136.389 701.604C136.389 701.328 136.389 701.053 136.389 700.789C136.389 639.864 155.687 583.419 188.486 537.215C189.337 536.029 190.199 534.832 191.062 533.658C195.506 532.903 199.866 531.897 204.131 530.651C281.468 514.084 360.194 477.799 419.358 418.635C358.565 479.428 320.004 567.666 303.832 646.704C256.934 681.203 199.028 701.604 136.389 701.604Z" stroke="#25306E" stroke-opacity="0.07" stroke-width="10.4218" stroke-miterlimit="2" stroke-linecap="round"/>
<path fill-rule="evenodd" clip-rule="evenodd" d="M648.17 534.352C648.589 534.927 648.996 535.502 649.416 536.077C682.717 582.484 702.327 639.361 702.327 700.789C702.327 701.053 702.327 701.328 702.327 701.604C640.192 701.604 582.692 681.527 535.998 647.519C518.017 575.273 476.678 474.254 420.28 417.82C484.68 482.196 564.688 520.097 648.17 534.352Z" stroke="#25306E" stroke-opacity="0.07" stroke-width="10.4218" stroke-miterlimit="2" stroke-linecap="round"/>
<path d="M654.805 655.554C602.258 655.554 553.694 638.362 514.441 609.296M418.586 419.337C418.586 419.104 418.586 418.879 418.586 418.654C418.587 418.404 418.588 418.146 418.589 417.896V417.887M514.565 229.279C515.534 228.571 516.509 227.854 517.49 227.154C556.198 199.437 603.61 183.112 654.805 183.112" stroke="#393939" stroke-width="10.4167" stroke-miterlimit="1.5" stroke-linecap="round" stroke-linejoin="round"/>
<path d="M322.73 609.296C283.476 638.362 234.913 655.554 182.366 655.554M418.582 417.879V417.887C418.583 418.146 418.584 418.396 418.585 418.654C418.585 418.879 418.585 419.104 418.585 419.337M182.366 183.112C233.985 183.112 281.759 199.704 320.642 227.846C321.299 228.321 321.953 228.804 322.606 229.279" stroke="#393939" stroke-width="10.4167" stroke-miterlimit="1.5" stroke-linecap="round" stroke-linejoin="round"/>
<path d="M229.167 323.517C199.9 284.306 182.517 235.72 182.367 183.11M419.35 418.648H419.275C419.042 418.649 418.817 418.649 418.592 418.649M654.808 183.11C654.667 234.386 638.142 281.842 610.208 320.52C609.483 321.525 608.75 322.524 608.008 323.517" stroke="#393939" stroke-width="10.4167" stroke-miterlimit="1.5" stroke-linecap="round" stroke-linejoin="round"/>
<path d="M182.367 655.552C182.367 655.325 182.367 655.097 182.367 654.87C182.367 604.014 198.475 556.891 225.858 518.327C226.567 517.328 227.283 516.335 228.008 515.349M418.592 418.649C418.817 418.649 419.042 418.649 419.267 418.65H419.358M609.167 515.349C609.667 516.019 610.15 516.693 610.633 517.369C638.433 556.11 654.808 603.593 654.808 654.87C654.808 655.097 654.808 655.325 654.808 655.552" stroke="#393939" stroke-width="10.4167" stroke-miterlimit="1.5" stroke-linecap="round" stroke-linejoin="round"/>
<path d="M321.201 614.479C334.116 547.296 366.624 471.299 418.587 419.335C418.835 419.088 419.074 418.849 419.313 418.611C477.043 361.207 543.68 331.359 618.766 321.945" stroke="black" stroke-width="10.4125" stroke-miterlimit="1.5" stroke-linecap="round" stroke-linejoin="round"/>
<path d="M515.975 217.634C506.412 292.411 476.486 361.108 419.311 418.609C419.073 418.848 418.835 419.087 418.587 419.334C363.928 473.994 289.247 505.274 218.28 516.72" stroke="black" stroke-width="10.4125" stroke-miterlimit="1.5" stroke-linecap="round" stroke-linejoin="round"/>
<path d="M614.37 516.715C542.945 505.462 474.311 473.598 419.325 418.611C387.107 386.394 362.397 349.497 345.192 310.098C331.682 279.166 324.469 253.605 320.214 220.648" stroke="black" stroke-width="10.4125" stroke-miterlimit="1.5" stroke-linecap="round" stroke-linejoin="round"/>
<path d="M218.294 321.949C288.624 333.644 365.107 364.394 419.324 418.612C466.444 465.731 500.978 550.15 515.98 610.473" stroke="black" stroke-width="10.4125" stroke-miterlimit="1.5" stroke-linecap="round" stroke-linejoin="round"/>
<path fill-rule="evenodd" clip-rule="evenodd" d="M229.176 323.511C199.916 284.3 182.525 235.72 182.375 183.11C233.996 183.11 281.776 199.7 320.656 227.84C320.856 227.99 321.066 228.14 321.276 228.29C325.646 257.65 332.746 281.6 345.186 310.09C362.266 349.191 386.736 385.831 418.596 417.881C369.956 369.611 303.646 340.071 239.926 326.111C236.416 325.051 232.836 324.181 229.176 323.511Z" fill="#F6F8F7" stroke="#25306E" stroke-width="10.42" stroke-miterlimit="2" stroke-linecap="round"/>
<path fill-rule="evenodd" clip-rule="evenodd" d="M514.576 229.28C515.546 228.56 516.526 227.85 517.506 227.15C556.206 199.43 603.626 183.11 654.816 183.11C654.676 234.38 638.156 281.84 610.216 320.521C609.516 321.491 608.806 322.46 608.086 323.43C537.345 334.27 474.295 363.941 419.315 418.611C471.875 365.751 501.405 303.45 513.255 235.66C513.765 233.55 514.206 231.43 514.576 229.28Z" fill="#F6F8F7" stroke="#25306E" stroke-width="10.42" stroke-miterlimit="2" stroke-linecap="round"/>
<path fill-rule="evenodd" clip-rule="evenodd" d="M182.375 655.55C182.375 655.32 182.375 655.09 182.375 654.87C182.375 604.01 198.485 556.89 225.866 518.32C226.576 517.33 227.296 516.33 228.016 515.35C231.726 514.72 235.366 513.88 238.926 512.84C303.486 499.01 369.206 468.72 418.596 419.33C367.846 470.08 335.656 543.74 322.156 609.72C283.006 638.52 234.666 655.55 182.375 655.55Z" fill="#F6F8F7" stroke="#25306E" stroke-width="10.42" stroke-miterlimit="2" stroke-linecap="round"/>
<path fill-rule="evenodd" clip-rule="evenodd" d="M609.605 515.93C609.955 516.41 610.295 516.89 610.645 517.37C638.446 556.111 654.815 603.591 654.815 654.871C654.815 655.091 654.815 655.321 654.815 655.551C602.945 655.551 554.945 638.791 515.965 610.401C500.955 550.091 466.445 465.76 419.365 418.65C473.125 472.39 539.915 504.03 609.605 515.93Z" fill="#F6F8F7" stroke="#25306E" stroke-width="10.42" stroke-miterlimit="2" stroke-linecap="round"/>
<path fill-rule="evenodd" clip-rule="evenodd" d="M321.275 228.291C321.725 228.621 322.175 228.951 322.615 229.281C330.495 275.141 370.495 310.091 418.595 310.091C464.445 310.091 502.936 278.351 513.256 235.661C501.406 303.451 471.876 365.751 419.316 418.611C419.076 418.361 418.835 418.121 418.595 417.881C386.735 385.831 362.265 349.191 345.185 310.091C332.745 281.601 325.645 257.651 321.275 228.291Z" fill="#7079BA" fill-opacity="0.27" stroke="#29336E" stroke-width="10.42" stroke-miterlimit="2" stroke-linecap="round"/>
<path fill-rule="evenodd" clip-rule="evenodd" d="M515.966 610.402C515.456 610.032 514.956 609.661 514.456 609.291C506.286 563.771 466.445 529.181 418.595 529.181C370.745 529.181 330.905 563.771 322.745 609.291C322.545 609.431 322.345 609.581 322.155 609.721C335.655 543.741 367.845 470.081 418.595 419.331C418.825 419.101 419.045 418.871 419.275 418.651H419.365C466.445 465.761 500.956 550.092 515.966 610.402Z" fill="#7079BA" fill-opacity="0.27" stroke="#29336E" stroke-width="10.42" stroke-miterlimit="2" stroke-linecap="round"/>
<path fill-rule="evenodd" clip-rule="evenodd" d="M239.925 326.111C303.645 340.071 369.955 369.611 418.595 417.881C418.595 418.141 418.595 418.391 418.595 418.651C418.595 418.871 418.595 419.101 418.595 419.331C369.205 468.721 303.485 499.011 238.925 512.842C279.425 501.041 309.055 463.621 309.055 419.331C309.055 375.401 279.905 338.231 239.925 326.111Z" fill="#7079BA" fill-opacity="0.27" stroke="#29336E" stroke-width="10.42" stroke-miterlimit="2" stroke-linecap="round"/>
<path fill-rule="evenodd" clip-rule="evenodd" d="M608.086 323.432C608.066 323.462 608.036 323.492 608.016 323.512C562.616 331.772 528.135 371.562 528.135 419.332C528.135 467.512 563.206 507.562 609.176 515.352C609.326 515.542 609.466 515.742 609.606 515.932C539.915 504.032 473.125 472.392 419.365 418.652L419.315 418.612C474.295 363.942 537.345 334.272 608.086 323.432Z" fill="#7079BA" fill-opacity="0.27" stroke="#29336E" stroke-width="10.42" stroke-miterlimit="2" stroke-linecap="round"/>
<path d="M70.2362 459.479C32.2572 437.715 5.22461 419.331 5.22461 419.331L36.3504 401.049M59.7025 388.443C107.422 359.77 172.148 321.947 211.459 321.947C265.176 321.947 308.771 365.584 308.771 419.331C308.771 473.079 265.176 516.716 211.459 516.716C182.174 516.716 134.359 494.871 92.1289 471.869" stroke="#27316D" stroke-width="10.2438" stroke-miterlimit="1.5" stroke-linecap="round" stroke-linejoin="round"/>
<path d="M93.499 471.168L125.849 454.668" stroke="#27316D" stroke-width="11.3416" stroke-miterlimit="1.5" stroke-linecap="round" stroke-linejoin="round"/>
<path d="M267.369 420.058C256.891 442.623 234.058 458.286 207.567 458.286C194.552 458.286 176.43 452.363 157.419 444.078C115.146 425.671 64.1739 391.37 59.6929 388.445" stroke="#27316D" stroke-width="10.4169" stroke-miterlimit="1.5" stroke-linecap="round" stroke-linejoin="round"/>
<path d="M449.763 782.388C477.887 734.781 515.982 663.925 515.982 626.576C515.982 572.806 472.345 529.168 418.598 529.168C364.851 529.168 321.213 572.806 321.213 626.576C321.213 688.507 418.598 833.014 418.598 833.014" stroke="#27316D" stroke-width="12.2986" stroke-miterlimit="1.5" stroke-linecap="round" stroke-linejoin="round"/>
<path d="M418.595 833.01V572.029" stroke="#27316D" stroke-width="12.4999" stroke-miterlimit="1.5" stroke-linecap="round" stroke-linejoin="round"/>
<path d="M375.745 661.64L417.113 620.248" stroke="#27316D" stroke-width="12.4999" stroke-miterlimit="1.5" stroke-linecap="round" stroke-linejoin="round"/>
<path d="M459.962 661.64L418.594 620.248" stroke="#27316D" stroke-width="12.4999" stroke-miterlimit="1.5" stroke-linecap="round" stroke-linejoin="round"/>
<path d="M777.424 450.501C729.657 479.129 664.645 516.72 625.517 516.72C571.748 516.72 528.11 473.083 528.11 419.336C528.11 365.588 571.748 321.951 625.517 321.951C687.448 321.951 831.955 419.336 831.955 419.336" stroke="#27316D" stroke-width="12.2986" stroke-miterlimit="1.5" stroke-linecap="round" stroke-linejoin="round"/>
<path d="M569.553 418.887C580.041 396.321 602.897 380.658 629.414 380.658C642.441 380.658 660.581 386.582 679.611 394.867C721.926 413.273 772.948 447.574 777.434 450.499" stroke="#27316D" stroke-width="12.4999" stroke-miterlimit="1.5" stroke-linecap="round" stroke-linejoin="round"/>
<path d="M515.974 212.695C515.974 266.464 472.337 310.102 418.59 310.102C364.843 310.102 321.206 266.464 321.206 212.695C321.206 150.763 418.59 6.25684 418.59 6.25684" stroke="#27316D" stroke-width="12.2986" stroke-miterlimit="1.5" stroke-linecap="round" stroke-linejoin="round"/>
<path d="M357.565 214.582C357.565 213.95 357.572 213.282 357.59 212.65M363.226 185.665C374.92 156.993 403.458 136.719 436.768 136.719C480.485 136.719 515.974 171.61 515.974 214.582" stroke="#27316D" stroke-width="12.5093" stroke-miterlimit="1.5" stroke-linecap="round" stroke-linejoin="round"/>
<path d="M357.588 212.648C358.468 245.08 384.302 271.116 415.995 271.116C448.243 271.116 470.529 248.172 470.529 214.968" stroke="#27316D" stroke-width="12.4992" stroke-miterlimit="1.5" stroke-linecap="round" stroke-linejoin="round"/>
<path d="M363.226 185.664C359.806 194.027 357.826 203.127 357.59 212.649" stroke="#27316D" stroke-width="12.5093" stroke-miterlimit="1.5" stroke-linecap="round" stroke-linejoin="round"/>
<path d="M357.59 212.649C357.572 212.087 357.565 211.525 357.565 210.927C357.565 201.897 359.595 193.359 363.226 185.664" stroke="#27316D" stroke-width="12.5093" stroke-miterlimit="1.5" stroke-linecap="round" stroke-linejoin="round"/>
</svg>
