<svg width="1026" height="244" viewBox="0 0 1026 244" fill="none" xmlns="http://www.w3.org/2000/svg">
<mask id="path-1-outside-1_1001_50" maskUnits="userSpaceOnUse" x="1" y="50" width="492" height="150" fill="black">
<rect fill="white" x="1" y="50" width="492" height="150"/>
<path d="M7.23125 194L69.6313 54H101.631L164.231 194H130.231L79.0313 70.4H91.8313L40.4313 194H7.23125ZM38.4312 164L47.0313 139.4H119.031L127.831 164H38.4312ZM227.58 195.6C215.98 195.6 205.646 193.267 196.58 188.6C187.513 183.8 180.38 177.2 175.18 168.8C170.113 160.4 167.58 150.867 167.58 140.2C167.58 129.4 170.113 119.867 175.18 111.6C180.38 103.2 187.513 96.6667 196.58 92C205.646 87.2 215.98 84.8 227.58 84.8C238.913 84.8 248.78 87.2 257.18 92C265.58 96.6667 271.78 103.4 275.78 112.2L251.58 125.2C248.78 120.133 245.246 116.4 240.98 114C236.846 111.6 232.313 110.4 227.38 110.4C222.046 110.4 217.246 111.6 212.98 114C208.713 116.4 205.313 119.8 202.78 124.2C200.38 128.6 199.18 133.933 199.18 140.2C199.18 146.467 200.38 151.8 202.78 156.2C205.313 160.6 208.713 164 212.98 166.4C217.246 168.8 222.046 170 227.38 170C232.313 170 236.846 168.867 240.98 166.6C245.246 164.2 248.78 160.4 251.58 155.2L275.78 168.4C271.78 177.067 265.58 183.8 257.18 188.6C248.78 193.267 238.913 195.6 227.58 195.6ZM293.744 194V86.4H323.544V116.8L319.344 108C322.544 100.4 327.677 94.6667 334.744 90.8C341.81 86.8 350.41 84.8 360.544 84.8V113.6C359.21 113.467 358.01 113.4 356.944 113.4C355.877 113.267 354.744 113.2 353.544 113.2C345.01 113.2 338.077 115.667 332.744 120.6C327.544 125.4 324.944 132.933 324.944 143.2V194H293.744ZM429.514 195.6C418.047 195.6 407.847 193.2 398.914 188.4C390.114 183.6 383.114 177.067 377.914 168.8C372.847 160.4 370.314 150.867 370.314 140.2C370.314 129.4 372.847 119.867 377.914 111.6C383.114 103.2 390.114 96.6667 398.914 92C407.847 87.2 418.047 84.8 429.514 84.8C440.847 84.8 450.981 87.2 459.914 92C468.847 96.6667 475.847 103.133 480.914 111.4C485.981 119.667 488.514 129.267 488.514 140.2C488.514 150.867 485.981 160.4 480.914 168.8C475.847 177.067 468.847 183.6 459.914 188.4C450.981 193.2 440.847 195.6 429.514 195.6ZM429.514 170C434.714 170 439.381 168.8 443.514 166.4C447.647 164 450.914 160.6 453.314 156.2C455.714 151.667 456.914 146.333 456.914 140.2C456.914 133.933 455.714 128.6 453.314 124.2C450.914 119.8 447.647 116.4 443.514 114C439.381 111.6 434.714 110.4 429.514 110.4C424.314 110.4 419.647 111.6 415.514 114C411.381 116.4 408.047 119.8 405.514 124.2C403.114 128.6 401.914 133.933 401.914 140.2C401.914 146.333 403.114 151.667 405.514 156.2C408.047 160.6 411.381 164 415.514 166.4C419.647 168.8 424.314 170 429.514 170Z"/>
</mask>
<path d="M7.23125 194L69.6313 54H101.631L164.231 194H130.231L79.0313 70.4H91.8313L40.4313 194H7.23125ZM38.4312 164L47.0313 139.4H119.031L127.831 164H38.4312ZM227.58 195.6C215.98 195.6 205.646 193.267 196.58 188.6C187.513 183.8 180.38 177.2 175.18 168.8C170.113 160.4 167.58 150.867 167.58 140.2C167.58 129.4 170.113 119.867 175.18 111.6C180.38 103.2 187.513 96.6667 196.58 92C205.646 87.2 215.98 84.8 227.58 84.8C238.913 84.8 248.78 87.2 257.18 92C265.58 96.6667 271.78 103.4 275.78 112.2L251.58 125.2C248.78 120.133 245.246 116.4 240.98 114C236.846 111.6 232.313 110.4 227.38 110.4C222.046 110.4 217.246 111.6 212.98 114C208.713 116.4 205.313 119.8 202.78 124.2C200.38 128.6 199.18 133.933 199.18 140.2C199.18 146.467 200.38 151.8 202.78 156.2C205.313 160.6 208.713 164 212.98 166.4C217.246 168.8 222.046 170 227.38 170C232.313 170 236.846 168.867 240.98 166.6C245.246 164.2 248.78 160.4 251.58 155.2L275.78 168.4C271.78 177.067 265.58 183.8 257.18 188.6C248.78 193.267 238.913 195.6 227.58 195.6ZM293.744 194V86.4H323.544V116.8L319.344 108C322.544 100.4 327.677 94.6667 334.744 90.8C341.81 86.8 350.41 84.8 360.544 84.8V113.6C359.21 113.467 358.01 113.4 356.944 113.4C355.877 113.267 354.744 113.2 353.544 113.2C345.01 113.2 338.077 115.667 332.744 120.6C327.544 125.4 324.944 132.933 324.944 143.2V194H293.744ZM429.514 195.6C418.047 195.6 407.847 193.2 398.914 188.4C390.114 183.6 383.114 177.067 377.914 168.8C372.847 160.4 370.314 150.867 370.314 140.2C370.314 129.4 372.847 119.867 377.914 111.6C383.114 103.2 390.114 96.6667 398.914 92C407.847 87.2 418.047 84.8 429.514 84.8C440.847 84.8 450.981 87.2 459.914 92C468.847 96.6667 475.847 103.133 480.914 111.4C485.981 119.667 488.514 129.267 488.514 140.2C488.514 150.867 485.981 160.4 480.914 168.8C475.847 177.067 468.847 183.6 459.914 188.4C450.981 193.2 440.847 195.6 429.514 195.6ZM429.514 170C434.714 170 439.381 168.8 443.514 166.4C447.647 164 450.914 160.6 453.314 156.2C455.714 151.667 456.914 146.333 456.914 140.2C456.914 133.933 455.714 128.6 453.314 124.2C450.914 119.8 447.647 116.4 443.514 114C439.381 111.6 434.714 110.4 429.514 110.4C424.314 110.4 419.647 111.6 415.514 114C411.381 116.4 408.047 119.8 405.514 124.2C403.114 128.6 401.914 133.933 401.914 140.2C401.914 146.333 403.114 151.667 405.514 156.2C408.047 160.6 411.381 164 415.514 166.4C419.647 168.8 424.314 170 429.514 170Z" fill="#F6F8F7"/>
<path d="M7.23125 194L3.57773 192.372L1.06906 198H7.23125V194ZM69.6313 54V50H67.0348L65.9777 52.3716L69.6313 54ZM101.631 54L105.283 52.3672L104.224 50H101.631V54ZM164.231 194V198H170.401L167.883 192.367L164.231 194ZM130.231 194L126.536 195.531L127.559 198H130.231V194ZM79.0313 70.4V66.4H73.0447L75.3358 71.9308L79.0313 70.4ZM91.8313 70.4L95.5246 71.9359L97.8268 66.4H91.8313V70.4ZM40.4313 194V198H43.0999L44.1246 195.536L40.4313 194ZM38.4312 164L34.6553 162.68L32.7955 168H38.4312V164ZM47.0313 139.4V135.4H44.1922L43.2553 138.08L47.0313 139.4ZM119.031 139.4L122.798 138.053L121.849 135.4H119.031V139.4ZM127.831 164V168H133.51L131.598 162.653L127.831 164ZM10.8848 195.628L73.2848 55.6284L65.9777 52.3716L3.57773 192.372L10.8848 195.628ZM69.6313 58H101.631V50H69.6313V58ZM97.9797 55.6328L160.58 195.633L167.883 192.367L105.283 52.3672L97.9797 55.6328ZM164.231 190H130.231V198H164.231V190ZM133.927 192.469L82.7267 68.8692L75.3358 71.9308L126.536 195.531L133.927 192.469ZM79.0313 74.4H91.8313V66.4H79.0313V74.4ZM88.1379 68.8641L36.7379 192.464L44.1246 195.536L95.5246 71.9359L88.1379 68.8641ZM40.4313 190H7.23125V198H40.4313V190ZM42.2072 165.32L50.8072 140.72L43.2553 138.08L34.6553 162.68L42.2072 165.32ZM47.0313 143.4H119.031V135.4H47.0313V143.4ZM115.265 140.747L124.065 165.347L131.598 162.653L122.798 138.053L115.265 140.747ZM127.831 160H38.4312V168H127.831V160ZM196.58 188.6L194.708 192.135L194.729 192.146L194.749 192.157L196.58 188.6ZM175.18 168.8L171.755 170.866L171.766 170.886L171.779 170.905L175.18 168.8ZM175.18 111.6L171.779 109.495L171.774 109.502L171.769 109.51L175.18 111.6ZM196.58 92L198.41 95.5565L198.431 95.546L198.451 95.5351L196.58 92ZM257.18 92L255.195 95.473L255.216 95.4849L255.237 95.4966L257.18 92ZM275.78 112.2L277.673 115.724L280.97 113.952L279.421 110.545L275.78 112.2ZM251.58 125.2L248.079 127.135L249.991 130.594L253.473 128.724L251.58 125.2ZM240.98 114L238.971 117.459L238.995 117.473L239.019 117.486L240.98 114ZM212.98 114L214.941 117.486L214.941 117.486L212.98 114ZM202.78 124.2L199.313 122.204L199.29 122.244L199.268 122.285L202.78 124.2ZM202.78 156.2L199.268 158.115L199.29 158.156L199.313 158.196L202.78 156.2ZM212.98 166.4L214.941 162.914L214.941 162.914L212.98 166.4ZM240.98 166.6L242.903 170.107L242.922 170.097L242.941 170.086L240.98 166.6ZM251.58 155.2L253.495 151.688L249.964 149.763L248.058 153.304L251.58 155.2ZM275.78 168.4L279.412 170.076L280.979 166.68L277.695 164.888L275.78 168.4ZM257.18 188.6L259.122 192.097L259.143 192.085L259.164 192.073L257.18 188.6ZM227.58 191.6C216.528 191.6 206.837 189.381 198.41 185.043L194.749 192.157C204.456 197.153 215.431 199.6 227.58 199.6V191.6ZM198.451 185.065C189.987 180.584 183.392 174.467 178.581 166.695L171.779 170.905C177.367 179.933 185.039 187.016 194.708 192.135L198.451 185.065ZM178.605 166.734C173.947 159.012 171.58 150.204 171.58 140.2H163.58C163.58 151.529 166.279 161.788 171.755 170.866L178.605 166.734ZM171.58 140.2C171.58 130.051 173.952 121.258 178.59 113.69L171.769 109.51C166.274 118.475 163.58 128.749 163.58 140.2H171.58ZM178.581 113.705C183.386 105.943 189.967 99.9022 198.41 95.5565L194.749 88.4434C185.059 93.4311 177.373 100.457 171.779 109.495L178.581 113.705ZM198.451 95.5351C206.87 91.0784 216.546 88.8 227.58 88.8V80.8C215.414 80.8 204.423 83.3216 194.708 88.4648L198.451 95.5351ZM227.58 88.8C238.337 88.8 247.496 91.0735 255.195 95.473L259.164 88.527C250.063 83.3265 239.489 80.8 227.58 80.8V88.8ZM255.237 95.4966C262.883 99.7446 268.49 105.83 272.138 113.855L279.421 110.545C275.069 100.97 268.276 93.5887 259.122 88.5034L255.237 95.4966ZM273.887 108.676L249.687 121.676L253.473 128.724L277.673 115.724L273.887 108.676ZM255.081 123.265C251.988 117.669 247.965 113.34 242.941 110.514L239.019 117.486C242.528 119.46 245.572 122.598 248.079 127.135L255.081 123.265ZM242.988 110.541C238.225 107.775 232.995 106.4 227.38 106.4V114.4C231.631 114.4 235.468 115.425 238.971 117.459L242.988 110.541ZM227.38 106.4C221.423 106.4 215.937 107.747 211.019 110.514L214.941 117.486C218.556 115.453 222.67 114.4 227.38 114.4V106.4ZM211.019 110.514C206.101 113.28 202.191 117.205 199.313 122.204L206.246 126.196C208.435 122.395 211.325 119.52 214.941 117.486L211.019 110.514ZM199.268 122.285C196.477 127.402 195.18 133.429 195.18 140.2H203.18C203.18 134.438 204.282 129.798 206.291 126.115L199.268 122.285ZM195.18 140.2C195.18 146.971 196.477 152.998 199.268 158.115L206.291 154.285C204.282 150.602 203.18 145.962 203.18 140.2H195.18ZM199.313 158.196C202.191 163.195 206.101 167.12 211.019 169.886L214.941 162.914C211.325 160.88 208.435 158.005 206.246 154.204L199.313 158.196ZM211.019 169.886C215.937 172.653 221.423 174 227.38 174V166C222.67 166 218.556 164.947 214.941 162.914L211.019 169.886ZM227.38 174C232.953 174 238.152 172.712 242.903 170.107L239.056 163.093C235.54 165.021 231.673 166 227.38 166V174ZM242.941 170.086C247.993 167.244 252.017 162.825 255.102 157.096L248.058 153.304C245.542 157.975 242.5 161.156 239.019 163.114L242.941 170.086ZM249.664 158.712L273.864 171.912L277.695 164.888L253.495 151.688L249.664 158.712ZM272.148 166.724C268.502 174.624 262.883 180.734 255.195 185.127L259.164 192.073C268.276 186.866 275.058 179.51 279.412 170.076L272.148 166.724ZM255.237 185.103C247.53 189.385 238.356 191.6 227.58 191.6V199.6C239.47 199.6 250.03 197.148 259.122 192.097L255.237 185.103ZM293.744 194H289.744V198H293.744V194ZM293.744 86.4V82.4H289.744V86.4H293.744ZM323.544 86.4H327.544V82.4H323.544V86.4ZM323.544 116.8L319.934 118.523L327.544 116.8H323.544ZM319.344 108L315.657 106.448L314.96 108.103L315.734 109.723L319.344 108ZM334.744 90.8L336.664 94.309L336.689 94.2952L336.714 94.281L334.744 90.8ZM360.544 84.8H364.544V80.8H360.544V84.8ZM360.544 113.6L360.146 117.58L364.544 118.02V113.6H360.544ZM356.944 113.4L356.448 117.369L356.695 117.4H356.944V113.4ZM332.744 120.6L335.457 123.539L335.46 123.536L332.744 120.6ZM324.944 194V198H328.944V194H324.944ZM297.744 194V86.4H289.744V194H297.744ZM293.744 90.4H323.544V82.4H293.744V90.4ZM319.544 86.4V116.8H327.544V86.4H319.544ZM327.154 115.077L322.954 106.277L315.734 109.723L319.934 118.523L327.154 115.077ZM323.03 109.552C325.889 102.764 330.41 97.7308 336.664 94.309L332.824 87.2909C324.944 91.6026 319.199 98.036 315.657 106.448L323.03 109.552ZM336.714 94.281C343.048 90.6957 350.932 88.8 360.544 88.8V80.8C349.889 80.8 340.573 82.9043 332.773 87.319L336.714 94.281ZM356.544 84.8V113.6H364.544V84.8H356.544ZM360.942 109.62C359.508 109.476 358.172 109.4 356.944 109.4V117.4C357.849 117.4 358.913 117.457 360.146 117.58L360.942 109.62ZM357.44 109.431C356.191 109.275 354.891 109.2 353.544 109.2V117.2C354.597 117.2 355.563 117.259 356.448 117.369L357.44 109.431ZM353.544 109.2C344.191 109.2 336.227 111.929 330.028 117.664L335.46 123.536C339.927 119.404 345.83 117.2 353.544 117.2V109.2ZM330.031 117.661C323.698 123.506 320.944 132.327 320.944 143.2H328.944C328.944 133.539 331.389 127.294 335.457 123.539L330.031 117.661ZM320.944 143.2V194H328.944V143.2H320.944ZM324.944 190H293.744V198H324.944V190ZM398.914 188.4L396.999 191.912L397.01 191.918L397.021 191.924L398.914 188.4ZM377.914 168.8L374.489 170.866L374.508 170.898L374.528 170.93L377.914 168.8ZM377.914 111.6L374.513 109.495L374.508 109.502L374.504 109.51L377.914 111.6ZM398.914 92L400.788 95.5338L400.798 95.5287L400.807 95.5236L398.914 92ZM459.914 92L458.021 95.5236L458.041 95.5346L458.062 95.5454L459.914 92ZM480.914 168.8L484.324 170.89L484.332 170.878L484.339 170.866L480.914 168.8ZM459.914 188.4L458.021 184.876L458.021 184.876L459.914 188.4ZM443.514 166.4L445.523 169.859L445.523 169.859L443.514 166.4ZM453.314 156.2L456.826 158.115L456.838 158.094L456.849 158.072L453.314 156.2ZM453.314 124.2L449.802 126.115L449.802 126.115L453.314 124.2ZM443.514 114L441.506 117.459L441.506 117.459L443.514 114ZM415.514 114L417.523 117.459L417.523 117.459L415.514 114ZM405.514 124.2L402.048 122.204L402.025 122.244L402.002 122.285L405.514 124.2ZM405.514 156.2L401.979 158.072L402.012 158.134L402.048 158.196L405.514 156.2ZM415.514 166.4L417.523 162.941L417.523 162.941L415.514 166.4ZM429.514 191.6C418.621 191.6 409.086 189.325 400.807 184.876L397.021 191.924C406.609 197.075 417.474 199.6 429.514 199.6V191.6ZM400.829 184.888C392.613 180.407 386.126 174.342 381.3 166.67L374.528 170.93C380.102 179.791 387.615 186.793 396.999 191.912L400.829 184.888ZM381.339 166.734C376.681 159.012 374.314 150.204 374.314 140.2H366.314C366.314 151.529 369.014 161.788 374.489 170.866L381.339 166.734ZM374.314 140.2C374.314 130.051 376.686 121.258 381.324 113.69L374.504 109.51C369.009 118.475 366.314 128.749 366.314 140.2H374.314ZM381.315 113.705C386.139 105.914 392.609 99.8711 400.788 95.5338L397.04 88.4661C387.619 93.4622 380.09 100.486 374.513 109.495L381.315 113.705ZM400.807 95.5236C409.086 91.0753 418.621 88.8 429.514 88.8V80.8C417.474 80.8 406.609 83.3247 397.021 88.4764L400.807 95.5236ZM429.514 88.8C440.266 88.8 449.735 91.0717 458.021 95.5236L461.807 88.4764C452.226 83.3283 441.429 80.8 429.514 80.8V88.8ZM458.062 95.5454C466.38 99.8908 472.831 105.866 477.504 113.49L484.324 109.31C478.864 100.401 471.314 93.4425 461.766 88.4546L458.062 95.5454ZM477.504 113.49C482.137 121.05 484.514 129.908 484.514 140.2H492.514C492.514 128.625 489.824 118.283 484.324 109.31L477.504 113.49ZM484.514 140.2C484.514 150.204 482.147 159.012 477.489 166.734L484.339 170.866C489.815 161.788 492.514 151.529 492.514 140.2H484.514ZM477.504 166.71C472.824 174.345 466.36 180.395 458.021 184.876L461.807 191.924C471.334 186.805 478.871 179.789 484.324 170.89L477.504 166.71ZM458.021 184.876C449.735 189.328 440.266 191.6 429.514 191.6V199.6C441.429 199.6 452.226 197.072 461.807 191.924L458.021 184.876ZM429.514 174C435.356 174 440.726 172.644 445.523 169.859L441.506 162.941C438.035 164.956 434.073 166 429.514 166V174ZM445.523 169.859C450.32 167.073 454.093 163.125 456.826 158.115L449.802 154.285C447.735 158.075 444.975 160.927 441.506 162.941L445.523 169.859ZM456.849 158.072C459.609 152.859 460.914 146.859 460.914 140.2H452.914C452.914 145.808 451.819 150.474 449.779 154.328L456.849 158.072ZM460.914 140.2C460.914 133.429 459.617 127.402 456.826 122.285L449.802 126.115C451.811 129.798 452.914 134.438 452.914 140.2H460.914ZM456.826 122.285C454.093 117.275 450.32 113.326 445.523 110.541L441.506 117.459C444.975 119.473 447.735 122.325 449.802 126.115L456.826 122.285ZM445.523 110.541C440.726 107.756 435.356 106.4 429.514 106.4V114.4C434.073 114.4 438.035 115.444 441.506 117.459L445.523 110.541ZM429.514 106.4C423.673 106.4 418.302 107.756 413.506 110.541L417.523 117.459C420.993 115.444 424.956 114.4 429.514 114.4V106.4ZM413.506 110.541C408.729 113.315 404.908 117.236 402.048 122.204L408.981 126.196C411.187 122.364 414.033 119.485 417.523 117.459L413.506 110.541ZM402.002 122.285C399.211 127.402 397.914 133.429 397.914 140.2H405.914C405.914 134.438 407.017 129.798 409.026 126.115L402.002 122.285ZM397.914 140.2C397.914 146.859 399.219 152.859 401.979 158.072L409.049 154.328C407.009 150.474 405.914 145.808 405.914 140.2H397.914ZM402.048 158.196C404.908 163.164 408.729 167.085 413.506 169.859L417.523 162.941C414.033 160.915 411.187 158.036 408.981 154.204L402.048 158.196ZM413.506 169.859C418.302 172.644 423.673 174 429.514 174V166C424.956 166 420.993 164.956 417.523 162.941L413.506 169.859Z" fill="#29336E" mask="url(#path-1-outside-1_1001_50)"/>
<path d="M558.9 194V136.8L566.3 156.4L504.7 54H539.1L586.3 132.6H566.5L613.9 54H645.7L584.1 156.4L591.3 136.8V194H558.9ZM696.342 195.6C684.876 195.6 674.676 193.2 665.742 188.4C656.942 183.6 649.942 177.067 644.742 168.8C639.676 160.4 637.142 150.867 637.142 140.2C637.142 129.4 639.676 119.867 644.742 111.6C649.942 103.2 656.942 96.6667 665.742 92C674.676 87.2 684.876 84.8 696.342 84.8C707.676 84.8 717.809 87.2 726.742 92C735.676 96.6667 742.676 103.133 747.742 111.4C752.809 119.667 755.342 129.267 755.342 140.2C755.342 150.867 752.809 160.4 747.742 168.8C742.676 177.067 735.676 183.6 726.742 188.4C717.809 193.2 707.676 195.6 696.342 195.6ZM696.342 170C701.542 170 706.209 168.8 710.342 166.4C714.476 164 717.742 160.6 720.142 156.2C722.542 151.667 723.742 146.333 723.742 140.2C723.742 133.933 722.542 128.6 720.142 124.2C717.742 119.8 714.476 116.4 710.342 114C706.209 111.6 701.542 110.4 696.342 110.4C691.142 110.4 686.476 111.6 682.342 114C678.209 116.4 674.876 119.8 672.342 124.2C669.942 128.6 668.742 133.933 668.742 140.2C668.742 146.333 669.942 151.667 672.342 156.2C674.876 160.6 678.209 164 682.342 166.4C686.476 168.8 691.142 170 696.342 170ZM826.797 234.4C816.664 234.4 806.864 233.133 797.397 230.6C788.064 228.2 780.264 224.533 773.997 219.6L786.397 197.2C790.93 200.933 796.664 203.867 803.597 206C810.664 208.267 817.597 209.4 824.397 209.4C835.464 209.4 843.464 206.933 848.397 202C853.464 197.067 855.997 189.733 855.997 180V163.8L857.997 136.8L857.597 109.6V86.4H887.197V176C887.197 196 881.997 210.733 871.597 220.2C861.197 229.667 846.264 234.4 826.797 234.4ZM821.997 188.8C811.997 188.8 802.93 186.667 794.797 182.4C786.797 178 780.33 171.933 775.397 164.2C770.597 156.333 768.197 147.2 768.197 136.8C768.197 126.267 770.597 117.133 775.397 109.4C780.33 101.533 786.797 95.4667 794.797 91.2C802.93 86.9333 811.997 84.8 821.997 84.8C831.064 84.8 839.064 86.6667 845.997 90.4C852.93 94 858.33 99.6667 862.197 107.4C866.064 115 867.997 124.8 867.997 136.8C867.997 148.667 866.064 158.467 862.197 166.2C858.33 173.8 852.93 179.467 845.997 183.2C839.064 186.933 831.064 188.8 821.997 188.8ZM828.197 163.2C833.664 163.2 838.53 162.133 842.797 160C847.064 157.733 850.397 154.6 852.797 150.6C855.197 146.6 856.397 142 856.397 136.8C856.397 131.467 855.197 126.867 852.797 123C850.397 119 847.064 115.933 842.797 113.8C838.53 111.533 833.664 110.4 828.197 110.4C822.73 110.4 817.864 111.533 813.597 113.8C809.33 115.933 805.93 119 803.397 123C800.997 126.867 799.797 131.467 799.797 136.8C799.797 142 800.997 146.6 803.397 150.6C805.93 154.6 809.33 157.733 813.597 160C817.864 162.133 822.73 163.2 828.197 163.2ZM982.236 194V173L980.236 168.4V130.8C980.236 124.133 978.169 118.933 974.036 115.2C970.036 111.467 963.836 109.6 955.436 109.6C949.703 109.6 944.036 110.533 938.436 112.4C932.969 114.133 928.303 116.533 924.436 119.6L913.236 97.8C919.103 93.6667 926.169 90.4667 934.436 88.2C942.703 85.9333 951.103 84.8 959.636 84.8C976.036 84.8 988.769 88.6667 997.836 96.4C1006.9 104.133 1011.44 116.2 1011.44 132.6V194H982.236ZM949.436 195.6C941.036 195.6 933.836 194.2 927.836 191.4C921.836 188.467 917.236 184.533 914.036 179.6C910.836 174.667 909.236 169.133 909.236 163C909.236 156.6 910.769 151 913.836 146.2C917.036 141.4 922.036 137.667 928.836 135C935.636 132.2 944.503 130.8 955.436 130.8H984.036V149H958.836C951.503 149 946.436 150.2 943.636 152.6C940.969 155 939.636 158 939.636 161.6C939.636 165.6 941.169 168.8 944.236 171.2C947.436 173.467 951.769 174.6 957.236 174.6C962.436 174.6 967.103 173.4 971.236 171C975.369 168.467 978.369 164.8 980.236 160L985.036 174.4C982.769 181.333 978.636 186.6 972.636 190.2C966.636 193.8 958.903 195.6 949.436 195.6Z" fill="#29336E"/>
</svg>
