<svg width="46" height="45" viewBox="0 0 46 45" fill="none" xmlns="http://www.w3.org/2000/svg">
<path d="M-1.54239 30.5778C-17.7075 14.2862 5.89002 6 19.3609 6C52.8059 6 48.6251 30.5778 39.567 38.3022C30.509 46.0266 18.664 50.9422 -1.54239 30.5778Z" fill="#FABC2F"/>
<path d="M45.6645 16.0969C45.8317 14.9577 45.0437 13.8988 43.9047 13.7316L32.131 12.0104L26.8697 1.28852C26.6803 0.961478 26.4084 0.689871 26.0811 0.500789C25.0477 -0.096465 23.7257 0.25703 23.1283 1.29056L17.8691 12.0104L6.09541 13.7317C5.64528 13.7977 5.22922 14.0093 4.91044 14.3339C4.10389 15.1555 4.11622 16.4753 4.93778 17.2819L13.4644 25.6417L11.4523 37.4418C11.4332 37.5547 11.4234 37.669 11.4231 37.7837C11.42 38.9367 12.352 39.8739 13.5051 39.8771C13.845 39.8766 14.1796 39.7928 14.4796 39.633L25 34.0706L35.5184 39.6309C35.9249 39.8467 36.3914 39.9219 36.8451 39.8446C37.9788 39.6512 38.7411 38.5755 38.5478 37.4418L36.5357 25.6417L45.0643 17.2797C45.3878 16.9613 45.5985 16.546 45.6645 16.0969ZM34.6883 24.5348C34.4445 24.7741 34.3328 25.1174 34.3893 25.4544L36.493 37.7896L25.4863 31.9708C25.1815 31.8121 24.8186 31.8121 24.5138 31.9708L13.5071 37.7916L15.6107 25.4545C15.6672 25.1175 15.5556 24.7742 15.3116 24.5349L6.39639 15.7947L18.7133 13.9941C19.0534 13.9433 19.3469 13.7289 19.4987 13.4204L25 2.20837L30.5012 13.4203C30.653 13.7288 30.9466 13.9431 31.2867 13.994L43.6056 15.7925L34.6883 24.5348Z" fill="#29336E"/>
</svg>
